<mxfile host="app.diagrams.net" modified="2024-03-14T14:30:11.170Z" agent="Mozilla/5.0 (X11; Linux x86_64) AppleWebKit/537.36 (KHTML, like Gecko) Chrome/122.0.0.0 Safari/537.36" version="24.0.6" etag="xlJZt6VaEgAfhxlIqK1i" type="github">
  <diagram name="第 1 页" id="3YiBM99ZAuKZO5Hjj_jn">
    <mxGraphModel>
      <root>
        <mxCell id="0" />
        <mxCell id="1" parent="0" />
      </root>
    </mxGraphModel>
  </diagram>
</mxfile>
